<?xml version="1.0" encoding="utf-8"?>
<!-- Generator: Adobe Illustrator 27.9.0, SVG Export Plug-In . SVG Version: 6.00 Build 0)  -->
<svg version="1.1" id="Layer_1" xmlns="http://www.w3.org/2000/svg" xmlns:xlink="http://www.w3.org/1999/xlink" x="0px" y="0px"
	 width="374.8px" height="491.9px" viewBox="0 0 374.8 491.9" style="enable-background:new 0 0 374.8 491.9;" xml:space="preserve"
	>
<style type="text/css">
	.st0{fill:url(#SVGID_1_);}
	.st1{fill:url(#SVGID_00000003787618223167901500000001004013274465397383_);}
	.st2{fill:url(#SVGID_00000170969769611379259940000007745806759373751454_);}
	.st3{fill:url(#SVGID_00000120554768990121530880000003872857174361439935_);}
	.st4{fill:url(#SVGID_00000097491717732559427280000004717352012745936516_);}
	.st5{fill:url(#SVGID_00000098181301172641045910000001140961573458616472_);}
	.st6{fill:url(#SVGID_00000085247612437255101800000001658920002645419931_);}
	.st7{fill:url(#SVGID_00000028325514465646148020000015838850263865388695_);}
	.st8{fill:url(#SVGID_00000059294074039814875470000012630341303675373448_);}
	.st9{fill:url(#SVGID_00000018224327912136990920000006813516593805120131_);}
	.st10{fill:url(#SVGID_00000054237320157109856810000007076367761489803430_);}
	.st11{fill:url(#SVGID_00000075123636949363891670000003103932340908246438_);}
	.st12{fill:url(#SVGID_00000075879002409509827710000017834841519773308089_);}
	.st13{fill:url(#SVGID_00000127746508313515492220000017165878148292279200_);}
	.st14{fill:url(#SVGID_00000047034825184912287360000016380570749650876085_);}
	.st15{fill:url(#SVGID_00000103264429548200860590000017349163359982120884_);}
	.st16{fill:url(#SVGID_00000068660983140962882740000007310262943278316933_);}
</style>
<g>
	<g>
		
			<linearGradient id="SVGID_1_" gradientUnits="userSpaceOnUse" x1="47.2941" y1="459.8364" x2="302.3712" y2="459.8364" gradientTransform="matrix(1 0 0 -1 0 493.9131)">
			<stop  offset="0" style="stop-color:#F69220"/>
			<stop  offset="0.2863" style="stop-color:#F68E20"/>
			<stop  offset="0.5401" style="stop-color:#F48421"/>
			<stop  offset="0.7807" style="stop-color:#F37221"/>
			<stop  offset="1" style="stop-color:#F05A22"/>
		</linearGradient>
		<path class="st0" d="M84.7,57.4c17.2,4.9,46.8,10.8,90.1,10.8s72.9-5.9,90.1-10.8c12.3-3.5,33.4-10.9,37-20.8c0.6-1.6,0.6-3.4,0-5
			c-3.6-9.9-24.7-17.3-37-20.8C247.7,5.9,218.1,0,174.8,0S102,5.9,84.7,10.8c-12.3,3.5-33.4,10.9-37,20.8c-0.6,1.6-0.6,3.4,0,5
			C51.2,46.5,72.4,53.9,84.7,57.4z"/>
		
			<linearGradient id="SVGID_00000137104262313372772640000008072645510138928279_" gradientUnits="userSpaceOnUse" x1="46.237" y1="761.6691" x2="163.3306" y2="761.6691" gradientTransform="matrix(1 0 0 1 0 -558)">
			<stop  offset="0" style="stop-color:#68B2FF"/>
			<stop  offset="1" style="stop-color:#0065C3"/>
		</linearGradient>
		<path style="fill:url(#SVGID_00000137104262313372772640000008072645510138928279_);" d="M152.6,201.1c0-7.4,0.6-13.8,1.7-19.4
			c0.4-2.1-0.1-4.3-1.4-6c-1.3-1.7-3.3-2.7-5.4-2.9c-38.3-2.3-71.3-9.4-90.5-19.3c-4-2.1-9.2-0.2-10.8,5.1v63.7l0,0
			c2.1,9.7,24.1,17.7,32.8,20.5c14.5,4.6,39.5,10.5,76.5,12c0.1,0,0.2,0,0.3,0c2.5,0,4.9-1.2,6.2-3.4c1.4-2.2,1.6-5,0.4-7.4
			C155.9,231.1,152.6,216.6,152.6,201.1z"/>
		
			<linearGradient id="SVGID_00000123428804164508165750000013610046123021240475_" gradientUnits="userSpaceOnUse" x1="46.237" y1="668.2354" x2="302.2676" y2="668.2354" gradientTransform="matrix(1 0 0 1 0 -558)">
			<stop  offset="0" style="stop-color:#68B2FF"/>
			<stop  offset="1" style="stop-color:#0065C3"/>
		</linearGradient>
		<path style="fill:url(#SVGID_00000123428804164508165750000013610046123021240475_);" d="M79.2,149.3c14.6,4.6,39.7,10.5,76.9,12
			c0.1,0,0.2,0,0.3,0c2.7,0,5.3-1.6,6.6-4c16.3-31.4,49.7-51.7,85.2-51.7c15.2,0,29.8,3.5,43.3,10.4c2.3,1.2,5.1,1.1,7.2-0.2
			c2.2-1.3,3.6-3.7,3.6-6.3l-0.2-42.9c0-2.6-1.3-5-3.5-6.3c-2.2-1.3-4.9-1.5-7.2-0.3c-25.2,12.6-69,20.1-117.1,20.1
			c-48.3,0-92.8-7.8-118.7-20.8c-5.5-1-9.4,2.9-9.4,7.3v62.2l0,0C48.3,138.5,70.4,146.5,79.2,149.3z"/>
		<g>
			
				<linearGradient id="SVGID_00000122678222513558479800000013416132158836214925_" gradientUnits="userSpaceOnUse" x1="167.9468" y1="333.5616" x2="328.5179" y2="333.5616" gradientTransform="matrix(1 0 0 -1 0 493.9131)">
				<stop  offset="0" style="stop-color:#F69220"/>
				<stop  offset="0.2863" style="stop-color:#F68E20"/>
				<stop  offset="0.5401" style="stop-color:#F48421"/>
				<stop  offset="0.7807" style="stop-color:#F37221"/>
				<stop  offset="1" style="stop-color:#F05A22"/>
			</linearGradient>
			<path style="fill:url(#SVGID_00000122678222513558479800000013416132158836214925_);" d="M328.5,192.3
				c-1.3-12.5-5.7-24.6-12.6-35.2c-6.8-10.4-15.9-19.1-26.5-25.5c-19.8-11.9-44.4-14.7-66.3-7.3c-14.6,4.9-27.8,14-37.5,26
				c-6.4,7.9-11.3,17-14.3,26.7c-1.5,4.8-3,10.2-3.2,15.3c-0.1,2.8,1.1,5.5,3.5,7c1.2,0.7,2.7,1.1,4.1,1.1h36.8
				c1.9,0,3.7-0.7,5.1-2.1l25.5-24.8c3.6-3.4,9.2-3.3,12.6,0.3l22.5,24.1c1.4,1.5,3.4,2.4,5.4,2.4H321c1.4,0,2.8-0.3,4.1-1.1
				C327.5,197.8,328.8,195.1,328.5,192.3z"/>
			
				<linearGradient id="SVGID_00000114767673932467392550000007883489282920238766_" gradientUnits="userSpaceOnUse" x1="170.8742" y1="257.2968" x2="325.8076" y2="257.2968" gradientTransform="matrix(1 0 0 -1 0 493.9131)">
				<stop  offset="0" style="stop-color:#F69220"/>
				<stop  offset="0.2863" style="stop-color:#F68E20"/>
				<stop  offset="0.5401" style="stop-color:#F48421"/>
				<stop  offset="0.7807" style="stop-color:#F37221"/>
				<stop  offset="1" style="stop-color:#F05A22"/>
			</linearGradient>
			<path style="fill:url(#SVGID_00000114767673932467392550000007883489282920238766_);" d="M318.4,215.1h-44.6L254,193.8
				c-1.3-1.5-3.2-2.3-5.2-2.3c-2-0.1-3.9,0.7-5.3,2.1l-22.2,21.6h-43.1c-2.3,0-4.6,1.1-6,3c-2.2,3.1-1.2,6.7,0,10
				c4.6,12.7,12.1,24,22.1,33c11.1,9.9,24.8,16.7,39.5,19.4c20.6,3.8,42.5-0.8,59.8-12.5c8-5.4,15-12.3,20.6-20.1
				c2.9-4.1,5.4-8.4,7.5-12.9c1.7-3.8,5-9.5,4.1-13.8c-0.2-1.1-0.7-2.1-1.3-2.9C323,216.2,320.8,215.1,318.4,215.1z"/>
		</g>
	</g>
	<g>
		<g>
			
				<linearGradient id="SVGID_00000018221044438150110770000008545825467291302073_" gradientUnits="userSpaceOnUse" x1="28.344" y1="341.89" x2="28.344" y2="407.2599">
				<stop  offset="0" style="stop-color:#F69220"/>
				<stop  offset="0.2863" style="stop-color:#F68E20"/>
				<stop  offset="0.5401" style="stop-color:#F48421"/>
				<stop  offset="0.7807" style="stop-color:#F37221"/>
				<stop  offset="1" style="stop-color:#F05A22"/>
			</linearGradient>
			<path style="fill:url(#SVGID_00000018221044438150110770000008545825467291302073_);" d="M43.4,344.8c4.3,1.9,7.6,4.7,9.9,8.2
				c2.3,3.5,3.5,7.8,3.5,12.6c0,4.8-1.2,9-3.5,12.6c-2.3,3.6-5.6,6.3-9.9,8.2c-4.3,1.9-9.3,2.8-15.1,2.8H15.1v18H0v-65.4h28.3
				C34.1,341.9,39.1,342.9,43.4,344.8z M37.8,374c2.4-2,3.5-4.7,3.5-8.4c0-3.7-1.2-6.5-3.5-8.5c-2.4-2-5.8-2.9-10.4-2.9H15.1v22.7
				h12.3C32,376.9,35.5,375.9,37.8,374z"/>
			
				<linearGradient id="SVGID_00000002360776257356720670000007662507475483926452_" gradientUnits="userSpaceOnUse" x1="97.4027" y1="341.89" x2="97.4027" y2="407.2599">
				<stop  offset="0" style="stop-color:#F69220"/>
				<stop  offset="0.2863" style="stop-color:#F68E20"/>
				<stop  offset="0.5401" style="stop-color:#F48421"/>
				<stop  offset="0.7807" style="stop-color:#F37221"/>
				<stop  offset="1" style="stop-color:#F05A22"/>
			</linearGradient>
			<path style="fill:url(#SVGID_00000002360776257356720670000007662507475483926452_);" d="M127.4,341.9v65.4h-15.1v-26.8H82.6
				v26.8H67.4v-65.4h15.1v25.8h29.7v-25.8H127.4z"/>
			
				<linearGradient id="SVGID_00000041996195746634040590000006720302429189894035_" gradientUnits="userSpaceOnUse" x1="171.2231" y1="341.89" x2="171.2231" y2="407.2599">
				<stop  offset="0" style="stop-color:#F69220"/>
				<stop  offset="0.2863" style="stop-color:#F68E20"/>
				<stop  offset="0.5401" style="stop-color:#F48421"/>
				<stop  offset="0.7807" style="stop-color:#F37221"/>
				<stop  offset="1" style="stop-color:#F05A22"/>
			</linearGradient>
			<path style="fill:url(#SVGID_00000041996195746634040590000006720302429189894035_);" d="M186.3,344.8c4.3,1.9,7.5,4.7,9.9,8.2
				c2.3,3.5,3.5,7.8,3.5,12.6c0,4.8-1.2,9-3.5,12.6c-2.3,3.6-5.6,6.3-9.9,8.2c-4.3,1.9-9.3,2.8-15.1,2.8H158v18h-15.1v-65.4h28.3
				C177,341.9,182,342.9,186.3,344.8z M180.7,374c2.4-2,3.5-4.7,3.5-8.4c0-3.7-1.2-6.5-3.5-8.5c-2.4-2-5.8-2.9-10.4-2.9H158v22.7
				h12.3C174.9,376.9,178.3,375.9,180.7,374z"/>
			
				<linearGradient id="SVGID_00000161602349415424460130000003428097815898708102_" gradientUnits="userSpaceOnUse" x1="270.5375" y1="341.89" x2="270.5375" y2="407.2599">
				<stop  offset="0" style="stop-color:#F69220"/>
				<stop  offset="0.2863" style="stop-color:#F68E20"/>
				<stop  offset="0.5401" style="stop-color:#F48421"/>
				<stop  offset="0.7807" style="stop-color:#F37221"/>
				<stop  offset="1" style="stop-color:#F05A22"/>
			</linearGradient>
			<path style="fill:url(#SVGID_00000161602349415424460130000003428097815898708102_);" d="M237.7,341.9h29.7
				c7.1,0,13.4,1.4,18.8,4.1c5.4,2.7,9.7,6.5,12.7,11.4c3,4.9,4.5,10.6,4.5,17.2s-1.5,12.3-4.5,17.2c-3,4.9-7.3,8.7-12.7,11.4
				c-5.4,2.7-11.7,4.1-18.8,4.1h-29.7V341.9z M266.6,394.8c6.5,0,11.7-1.8,15.6-5.5c3.9-3.6,5.8-8.6,5.8-14.8
				c0-6.2-1.9-11.2-5.8-14.8c-3.9-3.6-9.1-5.5-15.6-5.5h-13.8v40.5H266.6z"/>
			
				<linearGradient id="SVGID_00000006673656092206458120000003372943328872313788_" gradientUnits="userSpaceOnUse" x1="344.7785" y1="341.89" x2="344.7785" y2="407.2599">
				<stop  offset="0" style="stop-color:#F69220"/>
				<stop  offset="0.2863" style="stop-color:#F68E20"/>
				<stop  offset="0.5401" style="stop-color:#F48421"/>
				<stop  offset="0.7807" style="stop-color:#F37221"/>
				<stop  offset="1" style="stop-color:#F05A22"/>
			</linearGradient>
			<path style="fill:url(#SVGID_00000006673656092206458120000003372943328872313788_);" d="M371.6,379.2c2.1,2.8,3.2,6.2,3.2,10.2
				c0,5.7-2.2,10.1-6.7,13.2c-4.5,3.1-10.9,4.6-19.5,4.6h-33.8v-65.4h31.9c8,0,14.1,1.5,18.3,4.6c4.3,3.1,6.4,7.2,6.4,12.4
				c0,3.2-0.8,6-2.3,8.5c-1.5,2.5-3.7,4.5-6.4,5.9C366.5,374.5,369.5,376.4,371.6,379.2z M329.8,353.3v15.4h15c3.7,0,6.6-0.7,8.5-2
				c1.9-1.3,2.9-3.2,2.9-5.8c0-2.6-1-4.5-2.9-5.7c-1.9-1.3-4.8-1.9-8.5-1.9H329.8z M356.5,393.9c2-1.3,3-3.3,3-6.1
				c0-5.4-4-8.1-12-8.1h-17.7v16.2h17.7C351.5,395.9,354.5,395.2,356.5,393.9z"/>
		</g>
		<g>
			
				<linearGradient id="SVGID_00000013884591795889100070000001544922803407282308_" gradientUnits="userSpaceOnUse" x1="30.2847" y1="417.9762" x2="30.2847" y2="477.2548">
				<stop  offset="0" style="stop-color:#68B2FF"/>
				<stop  offset="1" style="stop-color:#0065C3"/>
			</linearGradient>
			<path style="fill:url(#SVGID_00000013884591795889100070000001544922803407282308_);" d="M42.7,479.4H17.6L12.8,491H0l24.1-54
				h12.3l24.2,54H47.5L42.7,479.4z M38.7,469.9l-8.6-20.7l-8.6,20.7H38.7z"/>
			
				<linearGradient id="SVGID_00000172439427834901179430000000425023520418885770_" gradientUnits="userSpaceOnUse" x1="89.0408" y1="417.9762" x2="89.0408" y2="477.2548">
				<stop  offset="0" style="stop-color:#68B2FF"/>
				<stop  offset="1" style="stop-color:#0065C3"/>
			</linearGradient>
			<path style="fill:url(#SVGID_00000172439427834901179430000000425023520418885770_);" d="M71,485.5c-4.3-4.3-6.4-10.4-6.4-18.3
				V437h12.5v29.8c0,9.7,4,14.5,12,14.5c3.9,0,6.9-1.2,9-3.5c2.1-2.3,3.1-6,3.1-11V437h12.3v30.2c0,7.9-2.1,14-6.4,18.3
				c-4.3,4.3-10.3,6.4-18,6.4C81.3,491.9,75.3,489.8,71,485.5z"/>
			
				<linearGradient id="SVGID_00000133493631680902988970000008547106951838161315_" gradientUnits="userSpaceOnUse" x1="153.0028" y1="417.9762" x2="153.0028" y2="477.2548">
				<stop  offset="0" style="stop-color:#68B2FF"/>
				<stop  offset="1" style="stop-color:#0065C3"/>
			</linearGradient>
			<path style="fill:url(#SVGID_00000133493631680902988970000008547106951838161315_);" d="M125.8,437h24.5c5.9,0,11,1.1,15.5,3.4
				c4.5,2.2,8,5.4,10.5,9.5c2.5,4.1,3.7,8.8,3.7,14.2c0,5.4-1.2,10.1-3.7,14.2c-2.5,4.1-6,7.2-10.5,9.5c-4.5,2.2-9.7,3.4-15.5,3.4
				h-24.5V437z M149.8,480.7c5.4,0,9.7-1.5,12.9-4.5c3.2-3,4.8-7.1,4.8-12.2c0-5.1-1.6-9.2-4.8-12.2c-3.2-3-7.5-4.5-12.9-4.5h-11.4
				v33.5H149.8z"/>
			
				<linearGradient id="SVGID_00000143594755259476301340000003772768165732338611_" gradientUnits="userSpaceOnUse" x1="195.8254" y1="417.9762" x2="195.8254" y2="477.2548">
				<stop  offset="0" style="stop-color:#68B2FF"/>
				<stop  offset="1" style="stop-color:#0065C3"/>
			</linearGradient>
			<path style="fill:url(#SVGID_00000143594755259476301340000003772768165732338611_);" d="M189.6,437h12.5v54h-12.5V437z"/>
			
				<linearGradient id="SVGID_00000036245014830631148400000012982555451790215098_" gradientUnits="userSpaceOnUse" x1="232.3206" y1="417.9762" x2="232.3206" y2="477.2548">
				<stop  offset="0" style="stop-color:#68B2FF"/>
				<stop  offset="1" style="stop-color:#0065C3"/>
			</linearGradient>
			<path style="fill:url(#SVGID_00000036245014830631148400000012982555451790215098_);" d="M226.1,447.2h-17.3V437h47.1v10.2h-17.3
				V491h-12.5V447.2z"/>
			
				<linearGradient id="SVGID_00000106828336316170923320000003770218500693320097_" gradientUnits="userSpaceOnUse" x1="287.9527" y1="417.9762" x2="287.9527" y2="477.2548">
				<stop  offset="0" style="stop-color:#68B2FF"/>
				<stop  offset="1" style="stop-color:#0065C3"/>
			</linearGradient>
			<path style="fill:url(#SVGID_00000106828336316170923320000003770218500693320097_);" d="M272.8,488.3c-4.5-2.4-8-5.7-10.6-10
				s-3.8-9-3.8-14.3c0-5.3,1.3-10.1,3.8-14.3s6.1-7.6,10.6-10c4.5-2.4,9.6-3.6,15.2-3.6c5.6,0,10.6,1.2,15.1,3.6
				c4.5,2.4,8,5.7,10.6,10s3.9,9,3.9,14.3c0,5.3-1.3,10.1-3.9,14.3s-6.1,7.6-10.6,10c-4.5,2.4-9.5,3.6-15.1,3.6
				C282.3,491.9,277.3,490.7,272.8,488.3z M296.6,479.1c2.6-1.5,4.6-3.5,6.1-6.1c1.5-2.6,2.2-5.6,2.2-8.9c0-3.3-0.7-6.3-2.2-8.9
				s-3.5-4.7-6.1-6.1c-2.6-1.5-5.5-2.2-8.6-2.2c-3.2,0-6.1,0.7-8.6,2.2c-2.6,1.5-4.6,3.5-6.1,6.1c-1.5,2.6-2.2,5.6-2.2,8.9
				c0,3.3,0.7,6.3,2.2,8.9c1.5,2.6,3.5,4.7,6.1,6.1c2.6,1.5,5.5,2.2,8.6,2.2C291.1,481.3,294,480.5,296.6,479.1z"/>
			
				<linearGradient id="SVGID_00000052077809342371840190000005259567257419988367_" gradientUnits="userSpaceOnUse" x1="350.8353" y1="417.9762" x2="350.8353" y2="477.2548">
				<stop  offset="0" style="stop-color:#68B2FF"/>
				<stop  offset="1" style="stop-color:#0065C3"/>
			</linearGradient>
			<path style="fill:url(#SVGID_00000052077809342371840190000005259567257419988367_);" d="M361.3,491l-10.4-15h-0.6h-10.9v15
				h-12.5v-54h23.4c4.8,0,8.9,0.8,12.5,2.4c3.5,1.6,6.2,3.9,8.1,6.8c1.9,2.9,2.9,6.4,2.9,10.4c0,4-1,7.5-2.9,10.4
				c-1.9,2.9-4.7,5.1-8.2,6.7l12.1,17.4H361.3z M358.2,449.6c-2-1.6-4.8-2.4-8.6-2.4h-10.2V466h10.2c3.8,0,6.6-0.8,8.6-2.5
				c2-1.6,2.9-4,2.9-6.9C361.1,453.5,360.1,451.2,358.2,449.6z"/>
		</g>
	</g>
</g>
</svg>
