<?xml version="1.0" encoding="utf-8"?>
<!-- Generator: Adobe Illustrator 27.9.0, SVG Export Plug-In . SVG Version: 6.00 Build 0)  -->
<svg version="1.1" id="Layer_1" xmlns="http://www.w3.org/2000/svg" xmlns:xlink="http://www.w3.org/1999/xlink" x="0px" y="0px"
	 width="1537.8px" height="520px" viewBox="0 0 1537.8 520" style="enable-background:new 0 0 1537.8 520;" xml:space="preserve">
<style type="text/css">
	.st0{fill:url(#SVGID_1_);}
	.st1{fill:url(#SVGID_00000011013522413440069070000006618167083704920984_);}
	.st2{fill:url(#SVGID_00000119825671291604530100000007638613008955642041_);}
	.st3{fill:url(#SVGID_00000008870407152075281280000013316620707977110674_);}
	.st4{fill:url(#SVGID_00000170969846110622903680000012455564484544504484_);}
	.st5{fill:url(#SVGID_00000101099510412150191230000017615742248493634222_);}
	.st6{fill:url(#SVGID_00000165192499224692525960000006050613033544610450_);}
	.st7{fill:url(#SVGID_00000027584043380160084830000001274824309955917742_);}
	.st8{fill:url(#SVGID_00000150095826720715984160000010034799849024690350_);}
	.st9{fill:url(#SVGID_00000032632746621789116340000011051607927251799721_);}
	.st10{fill:url(#SVGID_00000063593188215893897910000012843862584941244042_);}
	.st11{fill:url(#SVGID_00000038411952496981453120000005861599413897474179_);}
	.st12{fill:url(#SVGID_00000114761713076243628770000003077528464706006703_);}
	.st13{fill:url(#SVGID_00000039111553191875129960000014707253894252007600_);}
	.st14{fill:url(#SVGID_00000146492557631577638060000006854542925361990063_);}
	.st15{fill:url(#SVGID_00000146493158349253295630000012392485007191663754_);}
	.st16{fill:url(#SVGID_00000146498260406912593770000013896338605298151048_);}
</style>
<g>
	<g>
		<linearGradient id="SVGID_1_" gradientUnits="userSpaceOnUse" x1="1.9189" y1="62.9535" x2="472.7528" y2="62.9535">
			<stop  offset="0" style="stop-color:#F69220"/>
			<stop  offset="0.2863" style="stop-color:#F68E20"/>
			<stop  offset="0.5401" style="stop-color:#F48421"/>
			<stop  offset="0.7807" style="stop-color:#F37221"/>
			<stop  offset="1" style="stop-color:#F05A22"/>
		</linearGradient>
		<path class="st0" d="M71,106c31.8,9.1,86.4,19.9,166.4,19.9c79.9,0,134.6-10.8,166.4-19.9c22.7-6.5,61.7-20.1,68.3-38.4
			c1.1-3,1.1-6.2,0-9.2c-6.5-18.3-45.6-31.9-68.3-38.4C371.9,10.8,317.3,0,237.3,0C157.4,0,102.8,10.8,71,19.9
			C48.3,26.4,9.2,40.1,2.7,58.4c-1.1,3-1.1,6.2,0,9.2C9.2,85.8,48.3,99.5,71,106z"/>
		
			<linearGradient id="SVGID_00000140735876577831706790000001519760567066407323_" gradientUnits="userSpaceOnUse" x1="0" y1="376.0214" x2="216.0808" y2="376.0214">
			<stop  offset="0" style="stop-color:#68B2FF"/>
			<stop  offset="1" style="stop-color:#0065C3"/>
		</linearGradient>
		<path style="fill:url(#SVGID_00000140735876577831706790000001519760567066407323_);" d="M196.3,371.1c0-13.7,1-25.4,3.2-35.8
			c0.8-3.9-0.1-7.9-2.5-11.1c-2.4-3.1-6.1-5.1-10-5.3c-70.7-4.3-131.5-17.3-167.1-35.6c-7.3-3.8-17-0.5-19.9,9.4l0,117.6
			c0,0,0,0,0,0c3.8,17.9,44.5,32.6,60.7,37.8c26.7,8.6,73,19.4,141.2,22.2c0.2,0,0.4,0,0.6,0c4.6,0,9-2.4,11.5-6.3
			c2.6-4.1,2.9-9.2,0.7-13.6C202.5,426.5,196.3,399.8,196.3,371.1z"/>
		
			<linearGradient id="SVGID_00000168092891796826291070000006844204502391332762_" gradientUnits="userSpaceOnUse" x1="4.488951e-06" y1="203.4609" x2="472.6237" y2="203.4609">
			<stop  offset="0" style="stop-color:#68B2FF"/>
			<stop  offset="1" style="stop-color:#0065C3"/>
		</linearGradient>
		<path style="fill:url(#SVGID_00000168092891796826291070000006844204502391332762_);" d="M61,275.6c26.9,8.6,73.3,19.5,141.8,22.2
			c0.2,0,0.4,0,0.6,0c5.1,0,9.8-2.8,12.1-7.4c30-58,91.8-95.5,157.4-95.5c28,0,54.9,6.5,79.9,19.3c4.2,2.2,9.3,2,13.4-0.5
			c4.1-2.5,6.5-6.9,6.5-11.7l-0.2-79.3c0-4.7-2.5-9.1-6.5-11.6c-4-2.5-9-2.7-13.3-0.6c-46.5,23.3-127.3,37.2-216.2,37.2
			c-89,0-171.3-14.4-219.2-38.5C7.2,107.6,0,114.7,0,122.9l0,114.8c0,0,0,0,0,0C3.8,255.6,44.7,270.4,61,275.6z"/>
		<g>
			
				<linearGradient id="SVGID_00000149355540801673028110000004688932164989460668_" gradientUnits="userSpaceOnUse" x1="224.6505" y1="296.0748" x2="521.092" y2="296.0748">
				<stop  offset="0" style="stop-color:#F69220"/>
				<stop  offset="0.2863" style="stop-color:#F68E20"/>
				<stop  offset="0.5401" style="stop-color:#F48421"/>
				<stop  offset="0.7807" style="stop-color:#F37221"/>
				<stop  offset="1" style="stop-color:#F05A22"/>
			</linearGradient>
			<path style="fill:url(#SVGID_00000149355540801673028110000004688932164989460668_);" d="M521,354.9
				c-2.5-23.1-10.6-45.4-23.3-64.8c-12.5-19.1-29.4-35.2-49-47c-36.6-21.9-82-27.1-122.5-13.5c-27,9.1-51.3,25.9-69.1,48.1
				c-11.8,14.6-20.8,31.4-26.5,49.3c-2.8,8.9-5.5,18.8-5.9,28.2c-0.2,5.2,1.9,10,6.4,12.8c2.2,1.4,4.8,2,7.5,2l68,0
				c3.6,0,7-1.4,9.5-3.9l47.1-45.7c6.5-6.3,17-6.1,23.2,0.6l41.4,44.6c2.6,2.8,6.2,4.4,10,4.4l69.3,0c2.6,0,5.2-0.6,7.4-2
				C519.2,365.2,521.6,360.1,521,354.9z"/>
			
				<linearGradient id="SVGID_00000005248637014827159680000002271012980355169209_" gradientUnits="userSpaceOnUse" x1="229.9352" y1="436.6101" x2="516.1416" y2="436.6101">
				<stop  offset="0" style="stop-color:#F69220"/>
				<stop  offset="0.2863" style="stop-color:#F68E20"/>
				<stop  offset="0.5401" style="stop-color:#F48421"/>
				<stop  offset="0.7807" style="stop-color:#F37221"/>
				<stop  offset="1" style="stop-color:#F05A22"/>
			</linearGradient>
			<path style="fill:url(#SVGID_00000005248637014827159680000002271012980355169209_);" d="M502.5,396.9h-82.3l-36.5-39.3
				c-2.5-2.7-6-4.3-9.7-4.4c-3.7-0.1-7.2,1.3-9.9,3.8L323,396.9h-79.7c-4.3,0-8.4,2.1-11,5.5c-4.2,5.7-2.2,12.4,0,18.5
				c8.4,23.3,22.4,44.3,40.9,60.9c20.5,18.4,45.8,30.8,72.9,35.8c37.9,7,78.4-1.5,110.4-23.2c14.8-10,27.7-22.7,38-37.2
				c5.3-7.5,9.9-15.5,13.8-23.8c3.3-7.1,9.2-17.6,7.5-25.6c-0.4-1.9-1.2-3.8-2.4-5.3C510.9,399,506.8,396.9,502.5,396.9z"/>
		</g>
	</g>
	<g>
		<g>
			
				<linearGradient id="SVGID_00000054232393077253224950000012822166273208022688_" gradientUnits="userSpaceOnUse" x1="710.2353" y1="87.608" x2="710.2353" y2="216.7763">
				<stop  offset="0" style="stop-color:#F69220"/>
				<stop  offset="0.2863" style="stop-color:#F68E20"/>
				<stop  offset="0.5401" style="stop-color:#F48421"/>
				<stop  offset="0.7807" style="stop-color:#F37221"/>
				<stop  offset="1" style="stop-color:#F05A22"/>
			</linearGradient>
			<path style="fill:url(#SVGID_00000054232393077253224950000012822166273208022688_);" d="M739.5,93.2c8.3,3.8,14.7,9.1,19.2,16
				c4.5,6.9,6.7,15.1,6.7,24.5c0,9.3-2.2,17.5-6.7,24.4c-4.5,7-10.9,12.3-19.2,16c-8.3,3.7-18.1,5.5-29.3,5.5h-25.6v35.1h-29.4V87.6
				h55.1C721.4,87.6,731.2,89.5,739.5,93.2z M728.7,150c4.6-3.8,6.9-9.2,6.9-16.3c0-7.1-2.3-12.6-6.9-16.4
				c-4.6-3.8-11.3-5.7-20.2-5.7h-24v44.2h24C717.4,155.8,724.1,153.9,728.7,150z"/>
			
				<linearGradient id="SVGID_00000043455530414499064550000004788503678042093958_" gradientUnits="userSpaceOnUse" x1="844.6378" y1="87.608" x2="844.6378" y2="216.7763">
				<stop  offset="0" style="stop-color:#F69220"/>
				<stop  offset="0.2863" style="stop-color:#F68E20"/>
				<stop  offset="0.5401" style="stop-color:#F48421"/>
				<stop  offset="0.7807" style="stop-color:#F37221"/>
				<stop  offset="1" style="stop-color:#F05A22"/>
			</linearGradient>
			<path style="fill:url(#SVGID_00000043455530414499064550000004788503678042093958_);" d="M903,87.6v127.2h-29.4v-52.2h-57.8v52.2
				h-29.4V87.6h29.4v50.2h57.8V87.6H903z"/>
			
				<linearGradient id="SVGID_00000114780379809072316650000017129921932135669130_" gradientUnits="userSpaceOnUse" x1="988.3074" y1="87.608" x2="988.3074" y2="216.7763">
				<stop  offset="0" style="stop-color:#F69220"/>
				<stop  offset="0.2863" style="stop-color:#F68E20"/>
				<stop  offset="0.5401" style="stop-color:#F48421"/>
				<stop  offset="0.7807" style="stop-color:#F37221"/>
				<stop  offset="1" style="stop-color:#F05A22"/>
			</linearGradient>
			<path style="fill:url(#SVGID_00000114780379809072316650000017129921932135669130_);" d="M1017.6,93.2c8.3,3.8,14.7,9.1,19.2,16
				c4.5,6.9,6.7,15.1,6.7,24.5c0,9.3-2.2,17.5-6.7,24.4c-4.5,7-10.9,12.3-19.2,16c-8.3,3.7-18.1,5.5-29.4,5.5h-25.6v35.1h-29.4V87.6
				h55.1C999.5,87.6,1009.3,89.5,1017.6,93.2z M1006.8,150c4.6-3.8,6.9-9.2,6.9-16.3c0-7.1-2.3-12.6-6.9-16.4
				c-4.6-3.8-11.3-5.7-20.2-5.7h-24v44.2h24C995.4,155.8,1002.1,153.9,1006.8,150z"/>
			
				<linearGradient id="SVGID_00000058575176120776654460000017986963857929750458_" gradientUnits="userSpaceOnUse" x1="1181.5936" y1="87.608" x2="1181.5936" y2="216.7763">
				<stop  offset="0" style="stop-color:#F69220"/>
				<stop  offset="0.2863" style="stop-color:#F68E20"/>
				<stop  offset="0.5401" style="stop-color:#F48421"/>
				<stop  offset="0.7807" style="stop-color:#F37221"/>
				<stop  offset="1" style="stop-color:#F05A22"/>
			</linearGradient>
			<path style="fill:url(#SVGID_00000058575176120776654460000017986963857929750458_);" d="M1117.6,87.6h57.8
				c13.8,0,26,2.6,36.6,7.9c10.6,5.3,18.8,12.7,24.7,22.3c5.9,9.6,8.8,20.7,8.8,33.4s-2.9,23.9-8.8,33.4c-5.9,9.6-14.1,17-24.7,22.3
				c-10.6,5.3-22.8,7.9-36.6,7.9h-57.8V87.6z M1174,190.7c12.7,0,22.9-3.5,30.4-10.6c7.6-7.1,11.4-16.7,11.4-28.8
				c0-12.1-3.8-21.7-11.4-28.8c-7.6-7.1-17.7-10.6-30.4-10.6h-26.9v78.9H1174z"/>
			
				<linearGradient id="SVGID_00000093882508599162152000000004647245658506286775_" gradientUnits="userSpaceOnUse" x1="1326.0819" y1="87.608" x2="1326.0819" y2="216.7763">
				<stop  offset="0" style="stop-color:#F69220"/>
				<stop  offset="0.2863" style="stop-color:#F68E20"/>
				<stop  offset="0.5401" style="stop-color:#F48421"/>
				<stop  offset="0.7807" style="stop-color:#F37221"/>
				<stop  offset="1" style="stop-color:#F05A22"/>
			</linearGradient>
			<path style="fill:url(#SVGID_00000093882508599162152000000004647245658506286775_);" d="M1378.2,160.2c4.1,5.4,6.2,12,6.2,19.9
				c0,11.2-4.3,19.7-13,25.7c-8.7,6-21.3,9-37.9,9h-65.8V87.6h62.2c15.5,0,27.4,3,35.7,8.9c8.3,5.9,12.5,14,12.5,24.2
				c0,6.2-1.5,11.7-4.5,16.5c-3,4.8-7.1,8.7-12.5,11.5C1368.4,151,1374.1,154.8,1378.2,160.2z M1297,109.8v30h29.3
				c7.3,0,12.8-1.3,16.5-3.8c3.8-2.5,5.6-6.3,5.6-11.3c0-5-1.9-8.7-5.6-11.2c-3.8-2.5-9.3-3.7-16.5-3.7H1297z M1348.9,188.8
				c3.9-2.5,5.9-6.5,5.9-11.8c0-10.5-7.8-15.8-23.4-15.8H1297v31.4h34.4C1339.1,192.7,1344.9,191.4,1348.9,188.8z"/>
		</g>
		<g>
			
				<linearGradient id="SVGID_00000039112172192223238270000017332591172462592950_" gradientUnits="userSpaceOnUse" x1="726.4086" y1="258.2315" x2="726.4086" y2="397.864">
				<stop  offset="0" style="stop-color:#68B2FF"/>
				<stop  offset="1" style="stop-color:#0065C3"/>
			</linearGradient>
			<path style="fill:url(#SVGID_00000039112172192223238270000017332591172462592950_);" d="M755.6,402.9h-59.1l-11.3,27.3h-30.2
				L711.8,303h29.1l56.9,127.2h-30.9L755.6,402.9z M746.3,380.6l-20.2-48.7L706,380.6H746.3z"/>
			
				<linearGradient id="SVGID_00000154405386730374127740000004328278029085846404_" gradientUnits="userSpaceOnUse" x1="864.8105" y1="258.2315" x2="864.8105" y2="397.864">
				<stop  offset="0" style="stop-color:#68B2FF"/>
				<stop  offset="1" style="stop-color:#0065C3"/>
			</linearGradient>
			<path style="fill:url(#SVGID_00000154405386730374127740000004328278029085846404_);" d="M822.4,417.3
				c-10.1-10.1-15.2-24.4-15.2-43.1V303h29.4v70.2c0,22.8,9.4,34.2,28.3,34.2c9.2,0,16.2-2.8,21.1-8.3c4.8-5.5,7.3-14.1,7.3-25.9
				V303h29.1v71.2c0,18.7-5.1,33-15.2,43.1c-10.1,10.1-24.3,15.1-42.4,15.1C846.6,432.4,832.5,427.4,822.4,417.3z"/>
			
				<linearGradient id="SVGID_00000090973426282286518640000011108630529258774681_" gradientUnits="userSpaceOnUse" x1="1015.4749" y1="258.2315" x2="1015.4749" y2="397.864">
				<stop  offset="0" style="stop-color:#68B2FF"/>
				<stop  offset="1" style="stop-color:#0065C3"/>
			</linearGradient>
			<path style="fill:url(#SVGID_00000090973426282286518640000011108630529258774681_);" d="M951.5,303h57.8c13.8,0,26,2.6,36.6,7.9
				c10.6,5.3,18.8,12.7,24.7,22.3c5.9,9.6,8.8,20.7,8.8,33.4c0,12.7-2.9,23.9-8.8,33.4c-5.9,9.6-14.1,17-24.7,22.3
				c-10.6,5.3-22.8,7.9-36.6,7.9h-57.8V303z M1007.8,406c12.7,0,22.9-3.5,30.4-10.6c7.6-7.1,11.4-16.7,11.4-28.8
				c0-12.1-3.8-21.7-11.4-28.8c-7.6-7.1-17.7-10.6-30.4-10.6h-26.9V406H1007.8z"/>
			
				<linearGradient id="SVGID_00000047760872780470647480000007489955017150680720_" gradientUnits="userSpaceOnUse" x1="1116.3448" y1="258.2315" x2="1116.3448" y2="397.864">
				<stop  offset="0" style="stop-color:#68B2FF"/>
				<stop  offset="1" style="stop-color:#0065C3"/>
			</linearGradient>
			<path style="fill:url(#SVGID_00000047760872780470647480000007489955017150680720_);" d="M1101.6,303h29.4v127.2h-29.4V303z"/>
			
				<linearGradient id="SVGID_00000075127901611878424930000012659268801440321198_" gradientUnits="userSpaceOnUse" x1="1202.3103" y1="258.2315" x2="1202.3103" y2="397.864">
				<stop  offset="0" style="stop-color:#68B2FF"/>
				<stop  offset="1" style="stop-color:#0065C3"/>
			</linearGradient>
			<path style="fill:url(#SVGID_00000075127901611878424930000012659268801440321198_);" d="M1187.6,327h-40.7v-24h110.9v24H1217
				v103.2h-29.4V327z"/>
			
				<linearGradient id="SVGID_00000098204365311643919620000004298000181866434720_" gradientUnits="userSpaceOnUse" x1="1333.3533" y1="258.2315" x2="1333.3533" y2="397.864">
				<stop  offset="0" style="stop-color:#68B2FF"/>
				<stop  offset="1" style="stop-color:#0065C3"/>
			</linearGradient>
			<path style="fill:url(#SVGID_00000098204365311643919620000004298000181866434720_);" d="M1297.6,423.8
				c-10.6-5.7-18.9-13.5-24.9-23.5s-9-21.2-9-33.7c0-12.5,3-23.7,9-33.7c6-10,14.3-17.8,24.9-23.5c10.6-5.7,22.5-8.5,35.7-8.5
				c13.2,0,25.1,2.8,35.6,8.5c10.5,5.7,18.8,13.5,24.9,23.5c6.1,10,9.1,21.2,9.1,33.7c0,12.5-3,23.7-9.1,33.7
				c-6.1,10-14.4,17.8-24.9,23.5s-22.4,8.5-35.6,8.5C1320.1,432.4,1308.2,429.5,1297.6,423.8z M1353.7,402.1
				c6.1-3.5,10.8-8.3,14.3-14.5c3.5-6.2,5.2-13.2,5.2-21.1c0-7.9-1.7-14.9-5.2-21.1c-3.5-6.2-8.2-11-14.3-14.5
				c-6.1-3.5-12.8-5.2-20.4-5.2c-7.5,0-14.3,1.7-20.4,5.2c-6.1,3.5-10.8,8.3-14.3,14.5s-5.2,13.2-5.2,21.1c0,7.9,1.7,14.9,5.2,21.1
				s8.2,11,14.3,14.5c6.1,3.5,12.8,5.2,20.4,5.2C1340.9,407.3,1347.6,405.6,1353.7,402.1z"/>
			
				<linearGradient id="SVGID_00000092428883672349331850000001288199882718600871_" gradientUnits="userSpaceOnUse" x1="1481.4753" y1="258.2315" x2="1481.4753" y2="397.864">
				<stop  offset="0" style="stop-color:#68B2FF"/>
				<stop  offset="1" style="stop-color:#0065C3"/>
			</linearGradient>
			<path style="fill:url(#SVGID_00000092428883672349331850000001288199882718600871_);" d="M1506.2,430.2l-24.5-35.4h-1.5h-25.6
				v35.4h-29.4V303h55.1c11.3,0,21.1,1.9,29.4,5.6c8.3,3.8,14.7,9.1,19.2,16c4.5,6.9,6.7,15.1,6.7,24.5c0,9.4-2.3,17.6-6.8,24.4
				c-4.5,6.8-11,12.1-19.4,15.7l28.5,40.9H1506.2z M1498.7,332.7c-4.6-3.8-11.3-5.7-20.2-5.7h-24v44.3h24c8.8,0,15.6-1.9,20.2-5.8
				c4.6-3.9,6.9-9.3,6.9-16.4C1505.6,342,1503.3,336.5,1498.7,332.7z"/>
		</g>
	</g>
</g>
</svg>
